<svg width="68" height="64" viewBox="0 0 68 64" fill="none" xmlns="http://www.w3.org/2000/svg">
<g clip-path="url(#clip0_2005_2731)">
<path d="M53.8333 0H14.1667C10.4108 0.00423429 6.81008 1.41035 4.15429 3.90992C1.4985 6.40949 0.00449893 9.79841 0 13.3333L0 50.6667C0.00449893 54.2016 1.4985 57.5905 4.15429 60.0901C6.81008 62.5897 10.4108 63.9958 14.1667 64H53.8333C57.5892 63.9958 61.1899 62.5897 63.8457 60.0901C66.5015 57.5905 67.9955 54.2016 68 50.6667V13.3333C67.9955 9.79841 66.5015 6.40949 63.8457 3.90992C61.1899 1.41035 57.5892 0.00423429 53.8333 0V0ZM19.8333 58.6667V56C19.8333 52.4638 21.3259 49.0724 23.9827 46.5719C26.6394 44.0714 30.2428 42.6667 34 42.6667C37.7572 42.6667 41.3606 44.0714 44.0173 46.5719C46.6741 49.0724 48.1667 52.4638 48.1667 56V58.6667H19.8333ZM62.3333 50.6667C62.3333 52.7884 61.4378 54.8232 59.8437 56.3235C58.2497 57.8238 56.0877 58.6667 53.8333 58.6667V56C53.8333 51.0493 51.7438 46.3014 48.0243 42.8007C44.3048 39.3 39.2601 37.3333 34 37.3333C28.7399 37.3333 23.6952 39.3 19.9757 42.8007C16.2562 46.3014 14.1667 51.0493 14.1667 56V58.6667C11.9123 58.6667 9.75032 57.8238 8.15626 56.3235C6.5622 54.8232 5.66667 52.7884 5.66667 50.6667V13.3333C5.66667 11.2116 6.5622 9.17677 8.15626 7.67648C9.75032 6.17619 11.9123 5.33333 14.1667 5.33333H53.8333C56.0877 5.33333 58.2497 6.17619 59.8437 7.67648C61.4378 9.17677 62.3333 11.2116 62.3333 13.3333V50.6667Z" fill="#374957"/>
<path d="M34.0003 10.6675C31.7588 10.6675 29.5676 11.2931 27.7038 12.4651C25.8401 13.6372 24.3874 15.3031 23.5296 17.2522C22.6719 19.2013 22.4474 21.346 22.8847 23.4151C23.322 25.4842 24.4014 27.3849 25.9864 28.8766C27.5714 30.3684 29.5908 31.3843 31.7893 31.7959C33.9877 32.2074 36.2665 31.9962 38.3374 31.1889C40.4083 30.3815 42.1783 29.0144 43.4236 27.2602C44.6689 25.5061 45.3336 23.4438 45.3336 21.3341C45.3336 18.5052 44.1396 15.7921 42.0142 13.7917C39.8888 11.7913 37.0061 10.6675 34.0003 10.6675ZM34.0003 26.6675C32.8795 26.6675 31.7839 26.3547 30.8521 25.7687C29.9202 25.1826 29.1939 24.3497 28.765 23.3751C28.3361 22.4006 28.2239 21.3282 28.4425 20.2937C28.6612 19.2591 29.2009 18.3088 29.9933 17.5629C30.7858 16.817 31.7955 16.3091 32.8948 16.1033C33.994 15.8975 35.1334 16.0031 36.1688 16.4068C37.2043 16.8105 38.0893 17.494 38.7119 18.3711C39.3346 19.2482 39.667 20.2793 39.667 21.3341C39.667 22.7486 39.0699 24.1052 38.0072 25.1054C36.9445 26.1056 35.5032 26.6675 34.0003 26.6675Z" fill="#374957"/>
</g>
<defs>
<clipPath id="clip0_2005_2731">
<rect width="68" height="64" fill="white"/>
</clipPath>
</defs>
</svg>
