<svg width="54" height="59" viewBox="0 0 54 59" fill="none" xmlns="http://www.w3.org/2000/svg">
<g clip-path="url(#clip0_2005_2736)">
<path d="M53.3403 54.8054L39.91 40.1316C43.5699 35.2409 45.3694 29.0004 44.9362 22.7009C44.503 16.4013 41.8702 10.5247 37.5826 6.2865C33.2949 2.04831 27.6803 -0.227168 21.9002 -0.0692644C16.1201 0.0886388 10.6166 2.66784 6.52814 7.13485C2.43969 11.6019 0.0790602 17.6149 -0.0654614 23.9303C-0.209983 30.2456 1.87266 36.38 5.75168 41.0647C9.6307 45.7494 15.0093 48.6259 20.775 49.0992C26.5407 49.5725 32.2523 47.6064 36.7285 43.6076L50.1588 58.2814C50.5831 58.7292 51.1515 58.977 51.7414 58.9714C52.3314 58.9658 52.8957 58.7073 53.3129 58.2515C53.73 57.7957 53.9667 57.1791 53.9718 56.5345C53.9769 55.89 53.7501 55.269 53.3403 54.8054ZM22.4995 44.2517C18.9394 44.2517 15.4593 43.0983 12.4992 40.9373C9.53916 38.7763 7.23205 35.7048 5.86968 32.1112C4.5073 28.5175 4.15084 24.5632 4.84537 20.7483C5.53991 16.9333 7.25424 13.4291 9.77159 10.6786C12.2889 7.92819 15.4962 6.05512 18.9879 5.29628C22.4795 4.53744 26.0987 4.9269 29.3878 6.41542C32.6769 7.90395 35.4881 10.4247 37.466 13.6588C39.4438 16.893 40.4995 20.6954 40.4995 24.5851C40.4942 29.7992 38.596 34.7981 35.2215 38.485C31.847 42.172 27.2718 44.2459 22.4995 44.2517Z" fill="#374957"/>
</g>
<defs>
<clipPath id="clip0_2005_2736">
<rect width="54" height="59" fill="white"/>
</clipPath>
</defs>
</svg>
